<?xml version="1.0" encoding="UTF-8" standalone="no"?>
<svg xmlns:svg="http://www.w3.org/2000/svg" xmlns="http://www.w3.org/2000/svg" fill="#33cc33">
  <path
     style="stroke:none;stroke-width:2;fill:#000;"
     d="M 12 4 L 12 44 L 36 44 C 38.2 44 40 42.2 40 40 L 40 8 C 40 5.8 38.2 4 36 4 L 12 4 z M 29 8 C 30.758515 7.997464 35 8.0078125 35 8.0078125 C 35.541973 8.0077455 35.9915 8.4538241 36 9 C 36.02485 13.99538 35.9904 18.998886 36 24 L 36 24.007812 L 35 23.257812 L 35 23.25 L 32 21 L 29 23.25 L 28 24 L 28 8.9921875 L 28.007812 8.984375 C 28.01628 8.4382016 28.458027 7.999933 29 8 z M 16.482422 37 C 21.057369 37.0032 26.424233 37.008353 31.523438 37.001953 C 31.78643 37.002449 31.999505 37.215523 32 37.478516 C 32.000582 37.742271 31.787192 37.956487 31.523438 37.957031 C 26.925453 37.941611 21.638911 37.941248 16.482422 37.955078 C 16.218698 37.955585 16.004478 37.74224 16.003906 37.478516 C 15.998291 37.188603 16.222656 37.0033 16.482422 37 z M 29.517578 39.044922 C 29.779795 39.045453 29.992541 39.257319 29.994141 39.519531 C 29.994141 39.519531 29.994141 39.521484 29.994141 39.521484 C 30.025811 39.555877 30.023045 39.589227 29.984375 39.623047 C 29.93699 39.842965 29.742543 39.999987 29.517578 40 L 18.476562 40.003906 C 18.212825 40.004446 17.998586 39.791081 17.998047 39.527344 C 17.998447 39.516904 17.999008 39.506484 18 39.496094 C 17.999014 39.490024 17.9986 39.484616 18 39.478516 C 18 39.478516 18 39.476562 18 39.476562 C 18.025559 39.232819 18.231484 39.047999 18.476562 39.048828 L 29.517578 39.044922 z"
     transform="scale(0.5)"
     id="book" />
  <path
     style="stroke-width:0.1;stroke-miterlimit:4;stroke-dasharray:none;fill-opacity:1;stroke:none;"
     d="M 12 44 L 12 4 C 9.8 4 8 5.8 8 8 L 8 40 C 8 42.2 9.8 44 12 44 z "
     id="green-shape"
     transform="scale(0.5)" />
</svg>
